<svg xmlns="http://www.w3.org/2000/svg" viewBox="0 0 349.37 202.23"><defs><style>.cls-1{fill:#fff;}.cls-2{fill:#6f767c;}.cls-3{fill:#102228;}.cls-4{fill:#b5b9bc;}</style></defs><g id="Layer_2" data-name="Layer 2"><g id="Layer_1-2" data-name="Layer 1"><polygon class="cls-1" points="160.18 0 0 27.28 0 157.4 159.94 202.23 349.37 156.09 349.37 28.19 160.18 0"/><polygon class="cls-2" points="11.54 148.97 45.04 158.35 45.04 147.78 22.93 141.58 22.93 106.32 40.7 111.3 40.7 100.99 22.93 96.01 22.93 63.47 43.55 69.24 43.55 58.66 11.54 49.7 11.54 148.97"/><polygon class="cls-2" points="55.05 161.15 86.92 170.08 86.92 159.5 66.3 153.73 66.3 65.03 55.05 61.88 55.05 161.15"/><polygon class="cls-2" points="96.39 172.73 129.89 182.11 129.89 171.53 107.78 165.34 107.78 130.08 125.55 135.05 125.55 124.75 107.78 119.77 107.78 87.22 128.4 93 128.4 82.42 96.39 73.45 96.39 172.73"/><path class="cls-2" d="M138,184.24l10.31,2.89V154c0-5.43-.55-22.94-1.5-43.14l-.27-8.08.55.16,13,87.38V146.43l-7.87-57.34-14.24-4Z"/><path class="cls-3" d="M160.11,190.07l13.29-85.93.67-.13c-.54,12.31-2.3,52.09-2.3,57.65v26.58l10.3-2.4.34-99.69-14.3,3.48-8,56.52Z"/><path class="cls-3" d="M215.7,141l-11.21,2.91,5.67-54.3Zm-25.94,43.22,10.53-2.74,3.12-27.42,13.51-3.52,3.1,25.81,10.54-2.74-13-95.52-15,3.9Z"/><polygon class="cls-3" points="227.53 86.97 243.07 82.93 243.07 171.56 254.28 168.65 254.28 80.02 269.96 75.94 269.96 65.68 227.53 76.7 227.53 86.97"/><polygon class="cls-3" points="279.8 161.49 291.15 158.54 291.15 59.64 279.8 62.59 279.8 161.49"/><path class="cls-3" d="M327,107.89v21.75c0,6.22-2.16,10.43-6.48,11.55s-6.89-1.86-6.89-8.07V80.43c0-9.32,0-17.3,6.48-19,5.95-1.55,6.21,5.27,6.21,12.84v13l11.22-2.92V71c0-16.62-5.95-23-18.24-19.85-11.08,2.88-17,12.8-17,28.34v55.66c0,13.11,6.75,19.73,18.1,16.78,11.08-2.88,17.83-13.42,17.83-26.26V105Z"/><polygon class="cls-4" points="13.23 37.16 160.13 75.71 325.91 37.66 160.13 11.57 13.23 37.16"/><polygon class="cls-2" points="13.23 37.16 160.18 75.7 160.18 82.75 13.23 42.83 13.23 37.16"/><polygon class="cls-3" points="325.67 37.6 159.79 75.7 159.79 82.75 325.67 43.11 325.67 37.6"/></g></g></svg>