<svg id="logo" xmlns="http://www.w3.org/2000/svg" xmlns:xlink="http://www.w3.org/1999/xlink" viewBox="0 0 330.17 127.56"><defs><style>.cls-1{fill:#414141;}.cls-2{fill:url(#Algol_gradient_Coated);}.cls-3{fill:url(#Algol_gradient_Coated-2);}.cls-4{fill:url(#Algol_gradient_Coated-3);}.cls-5{fill:#787878;}</style><linearGradient id="Algol_gradient_Coated" x1="6.68" y1="17.39" x2="52.92" y2="44.08" gradientUnits="userSpaceOnUse"><stop offset="0" stop-color="#693"/><stop offset="0.22" stop-color="#79a432"/><stop offset="0.66" stop-color="#aac12e"/><stop offset="0.85" stop-color="#c0ce2d"/></linearGradient><linearGradient id="Algol_gradient_Coated-2" x1="8.69" y1="35.52" x2="46.17" y2="57.16" xlink:href="#Algol_gradient_Coated"/><linearGradient id="Algol_gradient_Coated-3" x1="17.68" y1="26.98" x2="39.11" y2="39.36" xlink:href="#Algol_gradient_Coated"/></defs><path class="cls-1" d="M83.84,12.48l-24.11,69h12l5.37-16.85h23l5.36,16.85h12l-24.11-69Zm-3.71,42.6,8.32-26.41,8.42,26.41Z"/><polygon class="cls-1" points="134.62 12.48 123.61 12.48 123.61 81.51 157.22 81.51 157.22 71.16 134.62 71.16 134.62 12.48"/><path class="cls-1" d="M199.14,54.62h10.29c-.65,9.95-9.17,17.32-19.62,17.32-11.78,0-21.31-10.53-21.31-25s9.09-24.86,21.87-24.89a32.52,32.52,0,0,1,16.89,4.68l3.82-8.86c-1-.64-2.05-1.23-3.11-1.79h0A37.65,37.65,0,0,0,190.37,12c-19,0-32.68,13.4-32.68,34.86,0,19.62,12,35,32.12,35C209.62,81.88,220,66.1,220,50.79V45H199.14Z"/><path class="cls-1" d="M257.6,12c-19.35,0-31.75,14.55-31.75,35C225.85,66.66,237.54,82,257.5,82c20.62,0,31.69-15.7,31.69-34.95C289.19,26.55,276.94,12,257.6,12Zm-.1,59.94c-12.31,0-20.86-11.2-20.86-24.9,0-14.25,8.46-25,21-25,12.15,0,20.8,10.91,20.8,25S270,71.94,257.5,71.94Z"/><polygon class="cls-1" points="307.56 71.16 307.56 12.48 296.56 12.48 296.56 81.51 330.17 81.51 330.17 71.16 307.56 71.16"/><polygon class="cls-2" points="26.89 0 0 28.96 0 42.58 26.89 13.56 53.79 42.58 53.79 28.96 26.89 0"/><path class="cls-3" d="M26.93,46.47c-10.06,0-17.71-6.75-17.71-6.75L1.94,47.2a37.08,37.08,0,0,0,50,0l-7.3-7.48S37,46.47,26.93,46.47Z"/><path class="cls-4" d="M26.9,20.18,12.61,35.77A22.24,22.24,0,0,0,26.9,41c7.35,0,14.28-5.23,14.28-5.23Z"/><path class="cls-5" d="M167,105A10.34,10.34,0,0,1,172.7,107l.73-4.21a11.19,11.19,0,0,0-6.56-2c-5.13,0-10.88,3.66-10.88,13.48,0,10.15,4.91,13.3,10.18,13.3a12.37,12.37,0,0,0,7.26-2.09l-.73-4.25a11.12,11.12,0,0,1-6.45,2.09c-2.9,0-5.35-2.64-5.35-9C160.9,108.22,163.65,105,167,105Z"/><polygon class="cls-5" points="189.3 111.55 181.2 111.55 181.2 100.96 176.51 100.96 176.51 127.38 181.2 127.38 181.2 115.73 189.3 115.73 189.3 127.38 193.99 127.38 193.99 100.96 189.3 100.96 189.3 111.55"/><polygon class="cls-5" points="198.09 127.38 212.89 127.38 212.89 123.2 202.78 123.2 202.78 115.73 211.79 115.73 211.79 111.55 202.78 111.55 202.78 105.14 212.89 105.14 212.89 100.96 198.09 100.96 198.09 127.38"/><polygon class="cls-5" points="235.13 100.96 229.64 120.34 224.22 100.96 219.16 100.96 215.38 127.38 220.25 127.38 222.6 109.94 227.4 127.38 231.68 127.38 236.63 109.94 238.43 127.38 243.7 127.38 240.26 100.96 235.13 100.96"/><rect class="cls-5" x="246.97" y="100.96" width="4.69" height="26.41"/><path class="cls-5" d="M265.43,105a10.23,10.23,0,0,1,5.71,1.94l.73-4.21a11.13,11.13,0,0,0-6.55-2c-5.13,0-10.88,3.66-10.88,13.48,0,10.15,4.91,13.3,10.18,13.3a12.3,12.3,0,0,0,7.25-2.09l-.73-4.25a11.06,11.06,0,0,1-6.44,2.09c-2.9,0-5.35-2.64-5.35-9C259.35,108.22,262.1,105,265.43,105Z"/><path class="cls-5" d="M281.52,101l-7.7,26.42h4.91l1.65-6.31h7.69l1.69,6.31h4.91L287,101Zm-.08,15.94,2.79-10.33L287,116.9Z"/><polygon class="cls-5" points="301.59 100.96 296.91 100.96 296.91 127.38 310.13 127.38 310.13 123.2 301.59 123.2 301.59 100.96"/><path class="cls-5" d="M323.61,112.21l-2-.7c-2-.69-3.59-1.46-3.59-3.33s1.35-3.15,3.88-3.15a12.26,12.26,0,0,1,6.52,2.23l.73-4.54a13.46,13.46,0,0,0-7.32-1.94c-5.2,0-8.91,2.6-8.91,7.62s3.41,6.45,6.53,7.47l2.08.7c2,.66,3.56,1.47,3.56,3.52,0,2.38-1.5,3.22-4.1,3.22-3,0-5.79-1.54-7.66-2.56l-.62,4.79a16.69,16.69,0,0,0,8.42,2c5.38,0,9.05-2.24,9.05-7.69C330.17,114.81,326.73,113.27,323.61,112.21Z"/></svg>