<svg xmlns="http://www.w3.org/2000/svg" viewBox="0 0 64 64" id="medal"><path fill="#212529" d="m45 17-13 8-13-8V3h26v14z"></path><path fill="#dd051d" d="M40 3v17.08L32 25l-8-4.92V3h16z"></path><path fill="#a60416" d="m32 25 6.52-4h-.17a8.22 8.22 0 0 1-1.76-1A8.12 8.12 0 0 0 32 18a8.12 8.12 0 0 0-4.59 1.91 8.22 8.22 0 0 1-1.76 1h-.17Z"></path><path fill="#fccd1d" d="M50.55 40.5c0-2.11 1.57-4.44 1-6.34S48.2 31.24 47 29.6s-1.3-4.48-3-5.69-4.35-.42-6.32-1.05S34.11 20 32 20s-3.83 2.24-5.73 2.86-4.68-.14-6.32 1.05-1.75 4-3 5.69-3.85 2.59-4.49 4.56.95 4.23.95 6.34-1.57 4.44-.95 6.34S15.8 49.76 17 51.4s1.3 4.48 3 5.69 4.35.42 6.32 1S29.89 61 32 61s3.83-2.24 5.73-2.86 4.68.14 6.32-1 1.75-4 3-5.69 3.85-2.59 4.49-4.56-.99-4.28-.99-6.39Z"></path><circle cx="32" cy="40.5" r="14.5" fill="#f9a215"></circle><path fill="#fccd1d" d="m33.37 33 1.52 2.63a1.54 1.54 0 0 0 1.06.76L39 37a1.53 1.53 0 0 1 .85 2.56l-2.1 2.22a1.5 1.5 0 0 0-.4 1.22l.36 3a1.57 1.57 0 0 1-2.22 1.58l-2.81-1.27a1.6 1.6 0 0 0-1.32 0l-2.81 1.27A1.57 1.57 0 0 1 26.31 46l.36-3a1.5 1.5 0 0 0-.4-1.22l-2.1-2.22A1.53 1.53 0 0 1 25 37l3-.59a1.54 1.54 0 0 0 1.06-.76L30.63 33a1.59 1.59 0 0 1 2.74 0Z"></path></svg>