<svg xmlns="http://www.w3.org/2000/svg" viewBox="0 0 64 64" id="medal"><path fill="#a60416" d="M45 28H27v28l9-6 9 6V28z"></path><path fill="#a60416" d="M19 28h18v28l-9-6-9 6V28z"></path><path fill="#212529" d="M41 33H23v28l9-6 9 6V33z"></path><path fill="#111315" d="M23 42.82a11.22 11.22 0 0 1 2.65.23c2 .87 3.68 3 6.35 3s4.35-2.08 6.35-3a11.22 11.22 0 0 1 2.65-.23V33H23Z"></path><path fill="#dd051d" d="M37 33v25.33L32 55l-5 3.33V33h10z"></path><path fill="#a60416" d="M27 43.81c3.65 2.88 6.36 2.88 10 0V33H27Z"></path><path fill="#fccd1d" d="M50.55 23.5c0-2.11 1.57-4.44 1-6.34S48.2 14.24 47 12.6s-1.3-4.48-3-5.69-4.35-.42-6.32-1S34.11 3 32 3s-3.83 2.24-5.73 2.86-4.68-.14-6.32 1-1.75 4-3 5.69-3.85 2.59-4.49 4.56.95 4.23.95 6.34-1.57 4.44-.95 6.34S15.8 32.76 17 34.4s1.3 4.48 3 5.69 4.35.42 6.32 1S29.89 44 32 44s3.83-2.24 5.73-2.86 4.68.14 6.32-1 1.75-4 3-5.69 3.85-2.59 4.49-4.56-.99-4.28-.99-6.39Z"></path><circle cx="32" cy="23.5" r="14.5" fill="#f9a215"></circle><path fill="#fccd1d" d="m33.37 16 1.52 2.63a1.54 1.54 0 0 0 1.06.76L39 20a1.53 1.53 0 0 1 .85 2.56l-2.1 2.22a1.5 1.5 0 0 0-.4 1.22l.36 3a1.57 1.57 0 0 1-2.22 1.58l-2.81-1.27a1.6 1.6 0 0 0-1.32 0l-2.81 1.27A1.57 1.57 0 0 1 26.31 29l.36-3a1.5 1.5 0 0 0-.4-1.22l-2.1-2.22A1.53 1.53 0 0 1 25 20l3-.59a1.54 1.54 0 0 0 1.06-.76L30.63 16a1.59 1.59 0 0 1 2.74 0Z"></path></svg>